<?xml version="1.0" encoding="UTF-8" standalone="no"?>
<!-- Created with Inkscape (http://www.inkscape.org/) -->

<svg
   width="194.02968mm"
   height="229.12842mm"
   viewBox="0 0 194.02968 229.12842"
   version="1.1"
   id="svg5"
   inkscape:version="1.1 (c68e22c387, 2021-05-23)"
   sodipodi:docname="drawing.svg"
   xmlns:inkscape="http://www.inkscape.org/namespaces/inkscape"
   xmlns:sodipodi="http://sodipodi.sourceforge.net/DTD/sodipodi-0.dtd"
   xmlns="http://www.w3.org/2000/svg"
   xmlns:svg="http://www.w3.org/2000/svg">
  <sodipodi:namedview
     id="namedview7"
     pagecolor="#505050"
     bordercolor="#eeeeee"
     borderopacity="1"
     inkscape:pageshadow="0"
     inkscape:pageopacity="0"
     inkscape:pagecheckerboard="0"
     inkscape:document-units="mm"
     showgrid="false"
     inkscape:snap-global="false"
     fit-margin-top="0"
     fit-margin-left="0"
     fit-margin-right="0"
     fit-margin-bottom="0"
     inkscape:zoom="0.94867184"
     inkscape:cx="382.11317"
     inkscape:cy="786.8896"
     inkscape:window-width="1920"
     inkscape:window-height="1027"
     inkscape:window-x="-8"
     inkscape:window-y="22"
     inkscape:window-maximized="1"
     inkscape:current-layer="g1547" />
  <defs
     id="defs2" />
  <g
     inkscape:label="Layer 1"
     inkscape:groupmode="layer"
     id="layer1"
     transform="translate(-9.6570073,-44.775177)">
    <path
       id="path2526"
       style="fill:#ffffff;fill-opacity:0.464674;stroke:none;stroke-width:0.417154;stroke-linecap:round;stroke-linejoin:round;stroke-opacity:0.763587"
       d="M 106.1574,58.975733 A 33.77549,38.603419 0 0 0 72.399971,97.015097 H 139.92672 A 33.77549,38.603419 0 0 0 106.1574,58.975733 Z" />
    <path
       id="rect2902"
       style="fill:#ffffff;fill-opacity:0.464674;stroke-width:0.374355;stroke-linecap:round;stroke-linejoin:round;stroke-opacity:0.763587"
       d="m 72.153212,96.945498 68.267568,0.197305 c -0.27761,1.907284 0.90044,3.814567 2.17037,5.721847 -25.37513,-2.69761 -47.854495,-2.78088 -71.029854,-0.1973 0,-0.92076 0.591916,-2.696505 0.591916,-5.721852 z"
       sodipodi:nodetypes="ccccc" />
    <rect
       style="fill:#ffffff;fill-opacity:0.464674;stroke:#d47100;stroke-width:0.128925;stroke-linecap:round;stroke-linejoin:round;stroke-opacity:0.763587"
       id="rect2400"
       width="92.604904"
       height="5.2679973"
       x="60.552773"
       y="104.87184"
       ry="2.1693227"
       rx="2.1693227" />
    <rect
       style="fill:#ffffff;fill-opacity:0.464674;stroke:#d47100;stroke-width:0.374355;stroke-linecap:round;stroke-linejoin:round;stroke-opacity:0.763587"
       id="rect2318"
       width="78.407883"
       height="52.457939"
       x="66.814194"
       y="137.64128" />
    <path
       id="rect858"
       style="fill:#ffffff;fill-opacity:0.464674;stroke:#d47100;stroke-width:0.381571;stroke-linecap:round;stroke-linejoin:round;stroke-opacity:0.763587"
       d="m 71.752831,189.90873 69.158619,-0.55807 1.15013,66.12762 -17.7167,2.79032 c 0.0587,-42.88336 -32.690996,-29.85795 -34.038252,-0.27903 l -20.227987,-3.62742 z"
       sodipodi:nodetypes="ccccccc" />
    <g
       id="g1547"
       transform="translate(5.1274904,-13.015936)">
      <path
         id="path3577"
         style="fill:#ffffff;fill-opacity:0.464674;stroke-width:0.374355;stroke-linecap:round;stroke-linejoin:round;stroke-opacity:0.763587"
         d="m 92.242394,68.431104 c -0.719196,4.795552 4.998914,3.376737 8.719776,3.35187 4.53534,0.155804 8.83869,1.172146 8.34521,-3.198784 -5.93988,-0.34855 -6.386,-10.014735 -7.99298,-10.708161 -2.195256,-0.947274 0.92907,6.252442 -9.072006,10.555075 z"
         sodipodi:nodetypes="cccsc" />
      <path
         style="fill:#e1f731;stroke-width:0.671383"
         d="m 119.82168,286.21423 c -0.68926,-0.68926 -0.58507,-17.86418 0.11504,-18.96929 0.48234,-0.76134 1.75429,-0.66295 7.54277,0.58351 3.82943,0.8246 7.41325,1.74274 7.96404,2.04031 0.77138,0.41674 -0.85231,2.41231 -7.06738,8.68609 -4.43786,4.47978 -8.28739,7.9265 -8.55451,7.65938 z m 16.73513,-23.19204 c -0.23993,-3.38007 -0.43623,-10.2426 -0.43623,-15.25005 v -9.10447 l 21.64358,-21.68134 c 11.90396,-11.92473 22.21418,-21.86243 22.91159,-22.08379 0.97026,-0.30793 2.98238,1.30661 8.56866,6.87556 4.01535,4.0029 7.30063,7.58991 7.30063,7.97113 0,0.70611 -58.46365,59.41855 -59.16678,59.41855 -0.21186,0 -0.58153,-2.76551 -0.82145,-6.14559 z"
         id="path1565" />
      <path
         style="fill:#45ced4;stroke-width:0.671383"
         d="m 89.955105,235.83089 0.175743,-25.98421 1.893969,-0.50636 c 1.041683,-0.27852 6.026699,-0.30018 11.077823,-0.0481 l 9.18385,0.45822 v 25.84824 25.84824 l -11.25356,0.18412 -11.253571,0.18412 0.175746,-25.98421 z m 10.424365,23.08494 c 0.65082,-0.51439 0.74964,-2.92494 0.4229,-10.31577 -0.30038,-6.79469 -0.20932,-9.64451 0.30816,-9.64451 0.49159,0 0.79585,3.38653 0.91988,10.23859 l 0.18533,10.23858 2.68553,0.0729 c 1.47704,0.04 3.21815,0.30048 3.86914,0.5787 1.11961,0.47851 1.17404,-0.77701 1.00707,-23.23189 l -0.17652,-23.73774 -3.65706,-0.16492 c -2.01139,-0.0907 -3.84919,0.14595 -4.084,0.52589 -0.28475,0.46071 -0.99935,0.47319 -2.145495,0.0374 -1.776872,-0.67555 -4.28452,-0.34383 -5.689503,0.75265 -0.595993,0.46513 -0.818442,6.43392 -0.854833,22.93823 -0.02702,12.27023 0.127906,22.48664 0.344412,22.70314 0.567172,0.56716 5.860252,-0.19708 6.864989,-0.99121 z m -3.534796,-62.96972 c -1.107772,-0.32517 -3.186129,-1.56057 -4.618547,-2.74534 -6.79735,-5.62217 -6.86287,-16.96125 -0.130028,-22.51098 5.977985,-4.92757 13.855161,-4.69301 19.578961,0.58299 11.61935,10.71035 0.51863,29.1787 -14.830358,24.67333 z m 11.971886,-3.09136 c 8.21266,-6.19482 7.37356,-18.09343 -1.60335,-22.73556 -2.23643,-1.15651 -4.40242,-1.27888 -5.01761,-0.28348 -0.29898,0.48375 -0.72283,0.46517 -1.3549,-0.0594 -0.56042,-0.46513 -1.761508,-0.5785 -3.074128,-0.29021 -1.949432,0.42818 -2.031877,0.54093 -0.866732,1.18558 0.70818,0.39181 1.632554,1.17611 2.054177,1.74286 0.664204,0.89283 0.919606,0.90347 1.912303,0.0797 1.03124,-0.85585 1.12662,-0.78624 0.9545,0.69672 -0.30032,2.58759 0.67043,4.77225 1.95968,4.41022 0.61642,-0.17308 2.4048,-0.51438 3.97415,-0.75845 2.28923,-0.35601 2.85339,-0.24402 2.85339,0.5664 0,0.55557 0.34735,1.12592 0.77192,1.26744 0.42456,0.14151 -0.18241,0.99754 -1.34882,1.90226 -1.1664,0.9047 -3.38868,2.77789 -4.93836,4.16262 -1.5497,1.38473 -3.1235,2.51768 -3.49734,2.51768 -0.96017,5e-5 -3.743692,-3.37169 -3.743692,-4.53475 0,-0.53296 -0.43546,-1.92105 -0.967698,-3.08464 -0.532238,-1.16359 -1.291311,-3.37038 -1.686829,-4.90396 -0.594705,-2.30596 -0.949955,-2.72795 -2.053511,-2.43937 -0.73393,0.19191 -1.334409,0.64473 -1.334409,1.00623 0,0.3615 -0.652744,1.57399 -1.450557,2.6944 -1.861774,2.61463 -2.031996,8.59053 -0.335682,11.78456 1.509346,2.84195 4.761903,5.74169 7.04133,6.27754 3.111518,0.73145 10.140868,0.0113 11.752168,-1.20427 z m -8.27927,-0.89602 c 0,-0.36926 0.30212,-0.67138 0.67138,-0.67138 0.36926,0 0.67138,0.30212 0.67138,0.67138 0,0.36927 -0.30212,0.67139 -0.67138,0.67139 -0.36926,0 -0.67138,-0.30212 -0.67138,-0.67139 z m 3.29423,-8.81536 c 0.73281,-0.78658 2.48178,-2.16611 3.88659,-3.06562 l 2.55423,-1.63549 -2.34985,0.37556 c -1.29241,0.20656 -3.14952,0.55793 -4.12691,0.78083 -1.56249,0.35631 -2.10973,-0.045 -4.531845,-3.32371 -1.515104,-2.05094 -2.754743,-4.044 -2.754743,-4.42902 0,-0.38503 -0.327306,-0.70006 -0.727337,-0.70006 -0.400031,0 -0.617542,0.2266 -0.483368,0.50355 2.278719,4.70315 3.896232,8.58859 3.896232,9.35918 0,1.56871 1.314401,3.56493 2.347311,3.56493 0.52651,0 1.55687,-0.64357 2.28969,-1.43015 z"
         id="path1563" />
      <path
         style="fill:#3cd1d7;stroke-width:0.671383"
         d="m 93.514481,259.90703 c -0.216492,-0.21649 -0.371493,-10.4329 -0.344412,-22.70313 0.03636,-16.50432 0.25884,-22.4731 0.854833,-22.93824 1.404983,-1.09648 3.912631,-1.4282 5.689503,-0.75264 1.146145,0.43578 1.860745,0.4233 2.145495,-0.0374 0.23481,-0.37995 2.07261,-0.61659 4.084,-0.5259 l 3.65706,0.16494 0.17652,23.73773 c 0.16697,22.45486 0.11249,23.71041 -1.00707,23.23188 -0.65099,-0.27823 -2.3921,-0.53864 -3.86914,-0.57871 l -2.68553,-0.0729 -0.18533,-10.2386 c -0.12409,-6.85207 -0.42829,-10.2386 -0.91988,-10.2386 -0.51748,0 -0.60854,2.84982 -0.30816,9.64451 0.32674,7.39083 0.22792,9.80138 -0.4229,10.31577 -1.004737,0.79412 -6.297817,1.55837 -6.864989,0.9912 z m 3.549911,-65.84802 c -2.279427,-0.53583 -5.531984,-3.43558 -7.04133,-6.27754 -1.696314,-3.19402 -1.526092,-9.16993 0.335682,-11.78456 0.797813,-1.1204 1.450557,-2.33289 1.450557,-2.6944 0,-0.3615 0.600479,-0.8143 1.334409,-1.00623 1.103556,-0.28858 1.458806,0.13343 2.053511,2.43939 0.395518,1.53357 1.154591,3.74035 1.686829,4.90394 0.532238,1.16359 0.967698,2.55168 0.967698,3.08464 0,1.16307 2.783522,4.5348 3.743692,4.5348 0.37384,0 1.94764,-1.13296 3.49734,-2.51768 1.54968,-1.38474 3.77196,-3.25792 4.93836,-4.16263 1.16641,-0.90473 1.77338,-1.76074 1.34882,-1.90226 -0.42457,-0.14151 -0.77192,-0.71187 -0.77192,-1.26744 0,-0.81042 -0.56416,-0.92241 -2.85339,-0.56639 -1.56935,0.24405 -3.35773,0.58536 -3.97415,0.75845 -1.28925,0.36201 -2.26,-1.82263 -1.95968,-4.41023 0.17212,-1.48296 0.0767,-1.55257 -0.9545,-0.69672 -0.992697,0.82387 -1.248099,0.81323 -1.912303,-0.0796 -0.421623,-0.56677 -1.345997,-1.35105 -2.054177,-1.74286 -1.165145,-0.64465 -1.0827,-0.75741 0.866732,-1.18558 1.31262,-0.2883 2.513708,-0.17492 3.074128,0.29021 0.63207,0.52455 1.05592,0.54313 1.3549,0.0594 0.61519,-0.9954 2.78118,-0.87303 5.01761,0.28348 8.97691,4.64214 9.81601,16.54075 1.60335,22.73556 -1.6113,1.21542 -8.64065,1.93574 -11.752168,1.20427 z m 4.815658,-2.10028 c 0,-0.36926 -0.30212,-0.67138 -0.67138,-0.67138 -0.36926,0 -0.67138,0.30212 -0.67138,0.67138 0,0.36927 0.30212,0.67139 0.67138,0.67139 0.36926,0 0.67138,-0.30212 0.67138,-0.67139 z m -6.322443,-19.37999 c -0.289217,-0.46795 -0.344525,-1.03214 -0.122954,-1.25375 0.600861,-0.60086 1.255996,0.28285 0.931463,1.25646 -0.2274,0.68224 -0.385556,0.6817 -0.808537,-0.003 z"
         id="path1561" />
      <path
         style="fill:#9aa2a7;stroke-width:0.671383"
         d="M 44.409412,248.30222 C 23.029362,226.88083 5.3976311,209.14123 5.2277908,208.88092 5.0579492,208.62061 22.648566,226.0728 44.31805,247.66357 l 39.399064,39.25596 0.185643,-10.72218 0.185644,-10.72218 1.678457,-0.10994 c 1.479084,-0.0969 1.499024,-0.0714 0.167847,0.21454 -1.486973,0.31944 -1.510612,0.48603 -1.510612,10.64462 0,5.67608 -0.256918,10.47891 -0.570931,10.67298 -0.314013,0.19408 -18.0637,-17.17374 -39.44375,-38.59512 z m 92.046868,21.53694 c 0.66835,-0.73851 1.36624,-1.34277 1.55088,-1.34277 0.18463,0 -0.21114,0.60426 -0.8795,1.34277 -0.66835,0.73853 -1.36625,1.34277 -1.55088,1.34277 -0.18464,0 0.21115,-0.60424 0.8795,-1.34277 z m -17.36306,-3.02122 c -0.21255,-0.55389 -0.0938,-1.00708 0.26386,-1.00708 0.35767,0 0.65031,0.45319 0.65031,1.00708 0,0.55388 -0.11871,1.00707 -0.26386,1.00707 -0.14513,0 -0.43776,-0.45319 -0.65031,-1.00707 z m -2.56863,-1.4657 c 0.48465,-0.19395 1.06372,-0.1701 1.28682,0.0529 0.2231,0.22308 -0.17345,0.38176 -0.88119,0.35262 -0.78212,-0.0323 -0.94121,-0.19131 -0.40563,-0.40562 z m -27.935901,-0.66948 c 0.628857,-0.16554 1.328992,-0.88579 1.555856,-1.60058 0.226863,-0.71479 0.897972,-1.29962 1.491348,-1.29962 0.858101,0 0.7562,0.34345 -0.49797,1.67846 -0.867255,0.92315 -2.052882,1.64342 -2.634715,1.60057 -0.870898,-0.0641 -0.855791,-0.13101 0.08549,-0.37883 z m 23.442721,-1.13593 c -1.21319,-1.29138 -1.31047,-1.66394 -0.51429,-1.96945 0.64259,-0.24659 1.11937,0.1708 1.37964,1.20782 0.21874,0.87154 0.92623,1.72275 1.57218,1.89157 0.93264,0.24375 0.95663,0.32298 0.11659,0.38482 -0.58183,0.0429 -1.73119,-0.6388 -2.5541,-1.51476 z m 23.50922,-31.47296 c 0.10187,-7.66901 0.42099,-7.07834 0.72539,1.34276 0.11008,3.04641 -0.0286,5.53892 -0.30831,5.53892 -0.27968,0 -0.46736,-3.09675 -0.41708,-6.88168 z M 43.931293,215.58306 C 31.861095,203.50869 21.985474,193.3311 21.985474,192.96617 c 0,-0.98253 39.795838,-40.61903 40.782322,-40.61903 0.661781,0 0.843424,5.34991 0.843424,24.84116 v 24.84119 h 2.014149 2.014149 l -0.145166,8.56012 -0.145167,8.56014 -0.210848,-8.18181 -0.210848,-8.18181 -1.82598,-0.21048 -1.825981,-0.21048 -0.33569,-24.84117 -0.335692,-24.84118 -19.973644,19.79061 c -10.985504,10.88482 -19.973645,20.10132 -19.973645,20.48111 0,0.76544 42.35695,43.31548 43.118922,43.31548 0.263101,0 0.574045,-3.54994 0.690987,-7.88876 l 0.212628,-7.88875 0.144374,8.18481 c 0.0794,4.50167 -0.101108,8.33655 -0.401145,8.52197 -0.300028,0.18543 -10.421126,-9.54188 -22.49133,-21.61623 z m 90.996987,-1.97222 -0.15046,-11.58135 h 1.96492 c 1.29182,0 2.08357,-0.4025 2.31129,-1.17493 0.27,-0.91585 0.31659,-0.87884 0.21134,0.16785 -0.0924,0.91836 -0.71172,1.40941 -1.95957,1.55366 l -1.82452,0.21089 -0.20126,11.20261 -0.20125,11.20263 z m -45.133124,-4.28925 c 0,-0.31805 0.755306,-0.57828 1.678463,-0.57828 0.923144,0 1.678453,0.11588 1.678453,0.25743 0,0.14158 -0.755309,0.4018 -1.678453,0.57827 -0.923157,0.17648 -1.678463,0.0606 -1.678463,-0.25742 z m 9.579988,-0.37216 c 0.653236,-0.17022 1.559606,-0.15903 2.014146,0.0249 0.45455,0.18393 -0.0799,0.32319 -1.1877,0.30951 -1.107783,-0.0142 -1.479686,-0.16415 -0.826446,-0.33438 z m 90.108936,-6.94639 c -5.23841,-5.26533 -7.72512,-7.32208 -8.58706,-7.10234 -1.00737,0.25682 -1.07259,0.13979 -0.38435,-0.6895 0.69755,-0.84052 -2.4016,-4.23066 -19.55454,-21.3905 -11.21092,-11.21542 -20.5548,-20.36215 -20.7642,-20.32604 -0.2094,0.0361 -0.83392,-0.11574 -1.38781,-0.33731 -0.5539,-0.22164 -1.61133,-0.49929 -2.34984,-0.61699 -1.42078,-0.22644 -2.2468,-2.92173 -1.21245,-3.9561 0.32537,-0.32535 13.82161,12.66993 30.76006,29.61829 16.59919,16.60889 30.39159,30.19799 30.64975,30.19799 0.25817,0 0.60032,-0.67977 0.76036,-1.5106 0.18011,-0.93513 0.32579,-0.55147 0.38238,1.00707 0.0502,1.38472 -0.14035,2.51768 -0.42356,2.51768 -0.28324,0 -3.83317,-3.33524 -7.88874,-7.41165 z m -51.34935,-51.53578 c 0,-0.69486 -1.45356,-2.14842 -2.14842,-2.14842 -0.29542,0 -0.53711,0.60424 -0.53711,1.34276 0,0.89518 0.44759,1.34277 1.34277,1.34277 0.73852,0 1.34276,-0.24169 1.34276,-0.53711 z M 4.671109,184.73783 4.5295169,177.85261 11.579039,170.79455 c 3.877236,-3.88193 7.049521,-6.82037 7.049521,-6.52985 0,0.29052 -3.011316,3.52823 -6.691815,7.19493 l -6.6918142,6.66669 -0.2161142,6.74836 -0.2161142,6.74836 z m 193.216701,-0.31311 v -6.86262 l -27.30618,-27.33622 c -25.78559,-25.81394 -27.20629,-27.36128 -25.51255,-27.78638 2.22441,-0.55829 2.40884,-2.66865 0.28302,-3.23835 -0.83084,-0.22265 -2.58226,-0.40895 -3.89204,-0.414 -1.87083,-0.007 -2.89646,-0.54898 -4.78351,-2.52685 -2.03738,-2.13543 -2.46481,-3.12929 -2.81519,-6.54599 -0.22722,-2.21556 -0.55662,-5.23678 -0.73202,-6.71383 -0.17539,-1.47704 0.10965,-0.72173 0.63344,1.67846 0.5238,2.4002 0.96646,5.43768 0.9837,6.74997 0.0413,3.14206 3.49625,6.67769 6.52537,6.67769 4.4288,0 6.26224,0.73095 6.26224,2.49662 0,1.09276 -0.45746,1.77701 -1.34277,2.00853 -0.73851,0.19313 -1.34275,0.53756 -1.34275,0.76539 0,0.22783 12.08489,12.51276 26.85531,27.29984 l 26.85531,26.88558 v 6.8624 c 0,3.77431 -0.15105,6.86239 -0.33569,6.86239 -0.18463,0 -0.33569,-3.08818 -0.33569,-6.86263 z M 19.856049,163.01008 c 1.507705,-2.03723 20.256767,-20.77012 20.256767,-20.23928 0,0.2909 -4.738655,5.20816 -10.53034,10.92723 -5.791693,5.71907 -10.16858,9.9095 -9.726427,9.31205 z m 44.15118,-11.90811 c -0.195044,-0.31559 0.383487,-1.26722 1.285618,-2.11473 1.444876,-1.35739 1.690871,-1.40899 2.065287,-0.43329 0.233776,0.60921 0.251145,1.56084 0.0386,2.11472 -0.413914,1.07867 -2.80197,1.38393 -3.389497,0.4333 z m 2.960905,-1.08361 c 0,-0.6006 -0.393624,-0.83495 -1.007074,-0.59954 -0.55389,0.21254 -1.007073,0.65624 -1.007073,0.98601 0,0.32974 0.453183,0.59954 1.007073,0.59954 0.553892,0 1.007074,-0.44369 1.007074,-0.98601 z m 22.308991,-11.26674 c 0.154619,-10.95947 0.335429,-12.92412 1.18942,-12.92412 0.853983,0 1.034792,1.96465 1.189411,12.92412 0.178148,12.6271 0.150813,12.92413 -1.189411,12.92413 -1.34024,0 -1.367573,-0.29703 -1.18942,-12.92413 z m 10.588772,-0.16783 c 0,-11.18972 0.146333,-13.09197 1.007073,-13.09197 0.86075,0 1.00708,1.90225 1.00708,13.09197 0,11.18971 -0.14633,13.09196 -1.00708,13.09196 -0.86074,0 -1.007073,-1.90225 -1.007073,-13.09196 z m 9.719333,12.286 c -0.19367,-0.50471 -0.26937,-6.34568 -0.1682,-12.97996 0.15542,-10.19274 0.34002,-12.06233 1.19101,-12.06233 0.85968,0 1.00707,1.85874 1.00707,12.70033 0,9.56063 -0.20739,12.76946 -0.83887,12.97996 -0.46138,0.1538 -0.99734,-0.13329 -1.19101,-0.638 z m -68.801032,-8.75638 c 0,-0.26438 4.154182,-4.62722 9.231516,-9.6952 7.46298,-7.44923 8.974277,-9.26506 7.888751,-9.47838 -0.738522,-0.14514 -1.616174,-0.52307 -1.950342,-0.83986 -0.339202,-0.32156 0.234582,-0.35075 1.29902,-0.0661 1.048625,0.28044 2.002823,0.79859 2.120435,1.15143 0.11762,0.35285 -4.016884,4.86416 -9.187769,10.02515 -5.170885,5.161 -9.401611,9.16732 -9.401611,8.90294 z m 15.307096,-23.43259 c 0.258725,-0.23855 5.757545,-0.57348 12.219607,-0.74427 12.641988,-0.33416 11.274541,-0.0587 -3.491628,0.70331 -5.059106,0.26108 -8.986696,0.27951 -8.727979,0.0409 z m 43.942456,-1.7487 c 18.0149,-0.18326 18.63088,-0.23319 18.63088,-1.51014 0,-1.27331 -0.60724,-1.32747 -16.95243,-1.51205 l -16.952416,-0.19143 17.288116,-0.15579 17.28811,-0.15578 v 2.01415 2.01415 l -18.96657,-0.15679 -18.96657,-0.15678 z m -32.807776,-2.47891 c -0.204269,-0.53231 -0.229836,-1.51421 -0.05679,-2.18198 0.210794,-0.81357 0.340283,-0.61971 0.39247,0.58756 0.06156,1.42483 0.464093,1.86022 1.924184,2.08139 l 1.846303,0.2797 -1.867371,0.1006 c -1.082532,0.0583 -2.023475,-0.3062 -2.238781,-0.86726 z m 6.288145,-0.17734 c 0.830837,-0.16003 2.190387,-0.16003 3.021223,0 0.830837,0.16002 0.151062,0.29095 -1.510611,0.29095 -1.661673,0 -2.341448,-0.13087 -1.510612,-0.29095 z m 6.042447,-0.67138 c 0.830836,-0.16003 2.190387,-0.16003 3.021224,0 0.830836,0.16002 0.151061,0.29096 -1.510612,0.29096 -1.661673,0 -2.341448,-0.13088 -1.510612,-0.29096 z m -11.747738,-5.23294 c 0.0075,-1.47704 0.144944,-2.00224 0.305532,-1.1671 0.160589,0.83515 0.154492,2.04364 -0.01358,2.68553 -0.168027,0.64191 -0.299424,-0.0415 -0.29197,-1.51843 z m 0.61077,-4.36399 c -0.0054,-1.62763 1.722326,-7.727038 1.806611,-6.37814 0.02309,0.369262 -0.372738,2.333056 -0.879579,4.36399 -0.506847,2.03093 -0.924011,2.9373 -0.927032,2.01415 z m 63.071952,-6.784394 c -3.26511,-11.05379 -11.53961,-19.345634 -22.4039,-22.450868 -2.96935,-0.848702 -3.11347,-0.955215 -0.92837,-0.686147 3.589,0.441939 10.2656,3.741055 13.80288,6.82042 1.629,1.418131 4.11159,4.357311 5.51683,6.531509 2.63053,4.069931 5.50853,10.86255 5.10955,12.059481 -0.12394,0.371946 -0.61763,-0.651531 -1.09699,-2.274395 z M 70.696445,95.279581 c 0.812031,-3.015712 3.933265,-8.217573 6.933064,-11.554666 2.785273,-3.09845 8.082518,-7.244058 9.256431,-7.244058 0.2978,0 -0.994956,1.034676 -2.872781,2.29928 -4.645581,3.128514 -8.597482,7.783675 -11.414249,13.44546 -1.29493,2.602842 -2.151036,3.977134 -1.902465,3.053984 z M 88.712881,75.774959 c 2.297589,-1.463288 8.060256,-2.63657 12.495789,-2.544154 l 4.36399,0.09092 -5.706763,0.513602 c -3.138715,0.282481 -6.613113,0.810757 -7.7209,1.173948 -1.107786,0.36319 -2.618393,0.865684 -3.356915,1.116654 -1.283752,0.436253 -1.287054,0.420828 -0.0752,-0.350975 z m 4.07589,-4.038451 c -0.243389,-0.393828 -0.26123,-0.897365 -0.03962,-1.118972 0.2216,-0.221607 0.402918,-0.05044 0.402918,0.380358 0,0.550952 2.2688,0.783282 7.649071,0.783282 6.35562,0 7.71798,-0.179583 8.0566,-1.061985 0.64367,-1.677367 0.49126,-2.174593 -0.7674,-2.503512 -1.10112,-0.287755 -1.0998,-0.31193 0.0211,-0.38492 1.55443,-0.101221 2.12675,1.461169 1.18193,3.226571 -0.68906,1.28752 -1.33786,1.395229 -8.40438,1.395229 -4.69935,0 -7.828614,-0.276625 -8.100202,-0.716051 z m -0.97947,-2.574771 c 0,-0.697192 1.27712,-1.706474 1.655419,-1.308244 0.122812,0.129293 -0.1994,0.624641 -0.716061,1.100776 -0.516646,0.476134 -0.939358,0.569495 -0.939358,0.207468 z m 3.921121,-2.257985 c 1.67749,-0.88539 2.804972,-2.605343 4.462188,-6.807017 1.15429,-2.926558 1.29778,-2.931268 1.97295,-0.06476 0.43625,1.852106 0.39784,1.9111 -0.47756,0.733274 -0.90704,-1.220435 -0.97497,-1.188756 -1.4393,0.671383 -0.659399,2.641476 -3.544892,6.318531 -4.9488,6.30635 -0.846796,-0.0074 -0.735869,-0.2236 0.430522,-0.839228 z m 9.361178,-0.325795 c -1.01723,-1.16618 -3.07782,-4.855534 -2.33387,-4.178641 0.604,0.549545 3.80766,5.353562 3.57013,5.353562 -0.1163,0 -0.67258,-0.528715 -1.23626,-1.174921 z"
         id="path1559" />
      <path
         style="fill:#2b48f1;stroke-width:0.671383"
         d="m 189.07366,200.18317 c -3.26737,-3.23102 -16.57276,-16.50868 -29.56753,-29.5059 -12.99478,-12.99722 -23.87468,-23.47814 -24.17759,-23.29094 -0.3029,0.18721 -0.55072,0.0621 -0.55072,-0.27778 0,-0.33999 -3.48326,-4.10144 -7.7406,-8.35877 l -7.74061,-7.7406 0.0127,-15.61925 c 0.007,-8.59059 0.10569,-15.712893 0.22018,-15.827342 0.24811,-0.248099 76.89141,76.347802 77.74698,77.698892 0.32527,0.51365 0.59602,6.84039 0.60167,14.05944 0.01,12.86918 -0.27281,14.73686 -2.23213,14.73686 -0.34709,0 -3.30437,-2.64357 -6.57174,-5.87461 z"
         id="path1557" />
      <path
         style="fill:#d15d01;stroke-width:0.671383"
         d="m 136.32176,265.13948 c 0,-2.03093 0.12593,-2.86176 0.2797,-1.8463 0.15384,1.01547 0.15384,2.67714 0,3.69261 -0.15383,1.01546 -0.2797,0.18462 -0.2797,-1.84631 z M 13.876727,185.46978 C 9.7627305,181.34205 6.5054825,177.63855 6.6383984,177.23981 6.771313,176.84105 18.908298,164.47593 33.60947,149.76173 62.210783,121.1351 60.174632,122.79065 65.457523,123.86689 c 1.496514,0.30487 1.510611,0.41616 1.510611,11.92712 0,11.48725 -0.01886,11.63709 -1.657764,13.17677 -0.911772,0.85657 -1.497835,1.81616 -1.30237,2.13243 0.195474,0.31629 -0.342553,0.85113 -1.195611,1.18855 -0.853053,0.33741 -10.529555,9.62912 -21.503337,20.64825 l -19.952334,20.03478 z"
         id="path1555" />
      <path
         style="fill:#a40137;stroke-width:0.671383"
         d="m 83.18562,285.37699 c -0.06756,-1.02509 -0.422193,-1.46046 -1.006887,-1.23609 -0.551816,0.21175 -15.685191,-14.43795 -38.940214,-37.69565 L 5.2008995,208.40324 v -15.15988 c 0,-8.33793 0.1476987,-15.30757 0.32822,-15.4881 0.1805198,-0.18051 13.8284885,13.19898 30.3288265,29.73223 16.500331,16.53323 30.250262,29.90612 30.555398,29.71754 0.305138,-0.18859 0.557544,0.0526 0.560914,0.53596 0.0034,0.48339 3.792193,4.65179 8.419605,9.26312 4.627421,4.61134 8.549734,8.99212 8.716251,9.73506 0.166523,0.74293 0.05009,7.84641 -0.258718,15.78552 -0.308816,7.9391 -0.60842,13.72264 -0.665776,12.8523 z M 67.244255,136.23394 c 0,-6.46206 0.100698,-9.10563 0.223772,-5.87459 0.123067,3.23102 0.123067,8.51816 0,11.7492 -0.123081,3.23103 -0.223772,0.58746 -0.223772,-5.87461 z m -5.773068,-13.2149 c 0.484652,-0.19394 1.063718,-0.1701 1.286819,0.0531 0.223094,0.2231 -0.173445,0.38178 -0.88119,0.35262 -0.782127,-0.0323 -0.941212,-0.19131 -0.405629,-0.40562 z"
         id="path1553" />
      <path
         style="fill:#1b3349;stroke-width:0.671383"
         d="m 134.77782,269.5753 c 0,-0.14513 0.45318,-0.43775 1.00708,-0.65031 0.55389,-0.21255 1.00707,-0.0938 1.00707,0.26386 0,0.35767 -0.45318,0.65031 -1.00707,0.65031 -0.5539,0 -1.00708,-0.11871 -1.00708,-0.26386 z m -48.465463,-4.89445 c 0.484651,-0.19394 1.063719,-0.17009 1.28682,0.0529 0.223094,0.22309 -0.173445,0.38177 -0.88119,0.35263 -0.782127,-0.0323 -0.941212,-0.19131 -0.40563,-0.40564 z m 29.540853,0 c 0.48465,-0.19394 1.06372,-0.17009 1.28682,0.0529 0.22309,0.22309 -0.17345,0.38177 -0.88119,0.35263 -0.78213,-0.0323 -0.94121,-0.19131 -0.40563,-0.40564 z M 89.123774,236.38191 v -28.30998 h 5.69396 c 5.424676,0 5.712796,-0.075 6.091926,-1.58556 0.622,-2.47828 0.0655,-5.94826 -1.043763,-6.50884 -0.553886,-0.27991 -2.247492,-0.83815 -3.763572,-1.24056 -3.635808,-0.96502 -8.460112,-5.29312 -10.346443,-9.28224 -1.839549,-3.89018 -2.025065,-10.64755 -0.395975,-14.42342 2.267629,-5.25585 9.127847,-10.57301 13.666764,-10.59272 1.435359,-0.006 1.515879,-0.28245 1.616379,-5.54547 0.0581,-3.0464 0.0917,-5.91657 0.0746,-6.37813 -0.0171,-0.46158 0.23739,-0.83924 0.56562,-0.83924 0.32824,0 0.59678,-5.89138 0.59678,-13.09196 0,-11.10654 -0.15057,-13.09197 -0.99288,-13.09197 -0.83481,0 -1.025241,2.05736 -1.196202,12.92412 l -0.203319,12.92413 0.02122,-13.09198 c 0.02052,-12.63728 0.06791,-13.09196 1.364051,-13.09196 1.31539,0 1.33979,0.39874 1.19625,19.55556 l -0.14653,19.55554 2.83206,0.45278 c 8.29876,1.32677 14.70768,9.1911 14.28922,17.53423 -0.42694,8.51223 -5.10933,14.23329 -13.74917,16.79904 l -3.41475,1.01407 v 3.97616 3.97614 l 5.87459,0.19398 5.87461,0.19398 0.17566,26.81395 c 0.11418,17.4223 -0.0623,27.05181 -0.50354,27.49313 -0.45801,0.45802 -0.67919,-8.0767 -0.67919,-26.20722 v -26.88643 l -8.162,-0.43886 c -4.489102,-0.24138 -9.634156,-0.43887 -11.433441,-0.43887 h -3.271418 l 0.06231,27.59622 c 0.03424,15.17793 -0.107843,27.76635 -0.315778,27.9743 -0.207947,0.20793 -0.378076,-12.36144 -0.378076,-27.93192 z M 108.427,194.93738 c 9.16863,-4.56893 10.83029,-16.67552 3.24803,-23.6646 -5.7238,-5.276 -13.600974,-5.51056 -19.578959,-0.58299 -3.235023,2.66656 -4.956958,6.55658 -4.956958,11.19819 0,11.32121 11.100682,18.1259 21.287887,13.0494 z m -8.22065,-11.02755 c -0.238015,-0.38512 0.0415,-0.49036 0.66591,-0.25075 0.64074,0.24587 1.80104,-0.23259 2.86794,-1.18262 1.36888,-1.21892 1.55891,-1.27859 0.80507,-0.25278 -1.74147,2.36978 -3.49521,3.05129 -4.33892,1.68615 z m -0.905828,-2.69323 c 0,-0.92314 0.152398,-1.3008 0.33864,-0.83922 0.186255,0.46158 0.186255,1.21687 0,1.67845 -0.186242,0.46158 -0.33864,0.0839 -0.33864,-0.83923 z m 7.410008,-1.30271 c 0.47498,-0.76055 1.47069,-1.37819 2.2127,-1.37254 1.42298,0.0113 1.09777,0.3701 -1.87066,2.06641 -1.08614,0.62067 -1.12004,0.55191 -0.34204,-0.69387 z m -4.99833,0.18669 c 0.46158,-0.18625 1.21689,-0.18625 1.67847,0 0.46157,0.18624 0.0839,0.33864 -0.83923,0.33864 -0.92316,0 -1.30081,-0.1524 -0.83924,-0.33864 z m -4.099539,-3.53801 c -0.637917,-1.59434 -1.025284,-3.03336 -0.86079,-3.19786 0.164481,-0.16449 1.293519,1.15724 2.50895,2.93718 1.215429,1.77994 1.727109,2.84599 1.137079,2.369 -0.840193,-0.67921 -1.132707,-0.68753 -1.349086,-0.0383 -0.151959,0.45586 -0.798223,-0.4756 -1.436153,-2.06994 z m 38.092849,70.11388 c 0.001,-4.43113 0.10994,-6.15649 0.24146,-3.83414 0.13145,2.32234 0.13046,5.94781 -0.003,8.0566 -0.13285,2.10876 -0.24037,0.20867 -0.23905,-4.22246 z m -0.6793,-15.10612 c 0,-3.87723 0.11093,-5.46338 0.24658,-3.52476 0.13569,1.93861 0.13569,5.1109 0,7.04953 -0.13568,1.9386 -0.24658,0.35247 -0.24658,-3.52477 z M 67.210169,224.8565 c 0,-3.50797 0.113149,-4.94306 0.25146,-3.18907 0.138305,1.754 0.138305,4.62415 0,6.37814 -0.138305,1.75398 -0.25146,0.31891 -0.25146,-3.18907 z m 67.126491,-27.5267 c -0.0489,-7.93911 0.13074,-18.81552 0.39964,-24.16979 0.44468,-8.85647 0.49892,-8.0278 0.60084,9.18229 0.10301,17.39716 0.20648,18.94201 1.28699,19.22438 0.90118,0.2355 0.82983,0.32518 -0.30629,0.38492 -1.36373,0.0717 -1.49748,0.4639 -1.6866,4.94541 -0.11305,2.67714 -0.24554,-1.62811 -0.29458,-9.56721 z m -66.527832,7.72091 c 0.0075,-1.47704 0.144944,-2.00224 0.305532,-1.1671 0.160589,0.83514 0.154492,2.04364 -0.01358,2.68553 -0.16804,0.6419 -0.299436,-0.0415 -0.291984,-1.51843 z m 127.512852,1.48664 c -0.54196,-0.65303 -0.39851,-0.86323 0.58918,-0.86323 0.71806,0 1.30556,0.38845 1.30556,0.86323 0,0.47475 -0.26512,0.86319 -0.58917,0.86319 -0.32404,0 -0.91156,-0.38844 -1.30557,-0.86319 z M 64.463226,201.56421 c 0.653235,-0.17021 1.559602,-0.15902 2.014148,0.0249 0.454546,0.1839 -0.07991,0.32317 -1.187697,0.30949 -1.107782,-0.0142 -1.479688,-0.16414 -0.826451,-0.33437 z m 74.645954,-25.38298 c -2.3e-4,-13.29337 0.0894,-18.82673 0.19927,-12.29636 0.1098,6.5304 0.11008,17.40679 4e-4,24.16979 -0.10966,6.763 -0.19946,1.41995 -0.19967,-11.87343 z m -4.10121,-18.12733 c 0.003,-2.9541 0.12041,-4.07907 0.26231,-2.49994 0.14182,1.57911 0.13979,3.99609 -0.004,5.37105 -0.14426,1.37498 -0.2603,0.0829 -0.25786,-2.87111 z m -67.66098,-7.24633 c 0.252125,-0.66214 0.627534,-1.03475 0.834246,-0.82803 0.206713,0.2067 4.31e-4,0.74845 -0.458406,1.20387 -0.663072,0.65813 -0.740186,0.58101 -0.37584,-0.37584 z m 21.236898,-12.05595 c -0.07232,-7.29289 0.0951,-13.26034 0.372041,-13.26097 0.276944,-6.5e-4 0.425132,4.00247 0.329306,8.89582 -0.317786,16.22762 -0.568246,17.7865 -0.701347,4.36515 z m 3.225413,0.30213 c 0,-9.19911 -0.227584,-12.85127 -0.839226,-13.46744 -0.672892,-0.67786 -0.606364,-0.75677 0.335696,-0.39814 1.063203,0.40477 1.174923,1.6853 1.174923,13.46744 0,7.16107 -0.151068,13.02014 -0.335697,13.02014 -0.184628,0 -0.335696,-5.6799 -0.335696,-12.622 z m 16.784589,-0.46996 c 0,-7.20059 0.22658,-13.09197 0.50353,-13.09197 0.27695,0 0.50354,5.89138 0.50354,13.09197 0,7.20058 -0.22659,13.09196 -0.50354,13.09196 -0.27695,0 -0.50353,-5.89138 -0.50353,-13.09196 z m 3.02122,0 c 0,-7.20059 0.22658,-13.09197 0.50353,-13.09197 0.27695,0 0.50355,5.89138 0.50355,13.09197 0,7.20058 -0.2266,13.09196 -0.50355,13.09196 -0.27695,0 -0.50353,-5.89138 -0.50353,-13.09196 z m 14.61729,0.82702 c -4.10523,-4.16089 -7.63207,-8.31507 -7.83743,-9.23151 -0.71083,-3.17222 -0.76135,-12.75558 -0.0661,-12.52356 0.36926,0.12323 0.7585,3.19859 0.86497,6.83417 l 0.1936,6.61016 7.69514,7.69516 c 4.23237,4.23234 7.69521,7.80444 7.69521,7.938 0,1.01527 -2.06528,-0.75443 -8.54543,-7.32242 z m -24.86797,-17.94729 c 0,-1.29241 0.13824,-1.82113 0.30705,-1.17492 0.16887,0.64621 0.16887,1.70362 0,2.34983 -0.16888,0.64621 -0.30705,0.11744 -0.30705,-1.17491 z m 40.24425,-0.21113 c -2.00848,-2.13792 -1.85064,-2.49109 1.05789,-2.36696 l 2.51768,0.10739 -2.24809,0.27572 -2.2481,0.2757 2.21069,1.631 c 1.27039,0.93725 1.77662,1.63098 1.1902,1.63098 -0.56127,0 -1.67739,-0.69923 -2.48027,-1.55388 z M 55.80975,121.16 c -0.457903,-1.19327 0.213513,-2.40068 1.295111,-2.32897 0.57655,0.0382 0.5655,0.14746 -0.03962,0.39164 -0.46159,0.18624 -0.839243,0.74146 -0.839243,1.23381 0,0.49234 0.377653,1.04757 0.839229,1.23381 0.657325,0.26523 0.652759,0.35013 -0.02108,0.39164 -0.473169,0.0292 -1.028652,-0.38571 -1.234417,-0.92193 z m 15.030862,-2.86855 c 1.20671,-0.14943 3.019444,-0.14635 4.028297,0.007 1.008855,0.15319 0.02155,0.27545 -2.194018,0.27167 -2.215564,-0.004 -3.04099,-0.12904 -1.834279,-0.27852 z m 11.075026,-0.66659 c 1.020543,-0.15432 2.531154,-0.1502 3.356915,0.01 0.825761,0.15936 -0.0092,0.28563 -1.855534,0.28058 -1.846304,-0.006 -2.521923,-0.13541 -1.501381,-0.28974 z m 19.125182,0.008 c 0.83084,-0.16002 2.19039,-0.16002 3.02122,0 0.83084,0.16003 0.15107,0.29096 -1.5106,0.29096 -1.66167,0 -2.34146,-0.13087 -1.51062,-0.29096 z m -33.245541,-4.89723 c 0,-1.29242 0.138178,-1.82112 0.307043,-1.17492 0.168867,0.6462 0.168867,1.70363 0,2.34984 -0.168872,0.64621 -0.307043,0.11744 -0.307043,-1.17492 z m 2.361926,1.56951 c 0.461576,-0.18625 1.216881,-0.18625 1.678457,0 0.461576,0.18625 0.08392,0.33863 -0.839229,0.33863 -0.923151,0 -1.300804,-0.15238 -0.839228,-0.33863 z m 5.719531,-0.692 c 0.653235,-0.17022 1.559603,-0.15903 2.014149,0.0249 0.454547,0.18391 -0.07991,0.32318 -1.187696,0.30949 -1.107782,-0.0142 -1.479688,-0.16415 -0.826453,-0.33438 z m 23.582183,-0.86149 18.727441,-0.3517 -0.13017,-6.04246 c -0.0925,-4.29716 0.14153,-6.412164 0.81053,-7.322473 0.88453,-1.20358 1.32762,-0.887424 7.41885,5.293563 3.56297,3.61548 6.51791,6.91059 6.56651,7.32248 0.0487,0.41189 0.31096,-0.30854 0.583,-1.60096 l 0.49462,-2.34984 0.0884,3.00977 0.0884,3.00978 -7.3852,-7.36232 -7.38522,-7.362309 v 7.205919 7.20592 l -19.30233,-0.15183 -19.302264,-0.15183 z m 1.403871,-2.8694 c -0.2043,-0.83083 -0.10513,-8.30836 0.22028,-16.616724 l 0.59173,-15.106118 0.10258,16.61673 c 0.0565,9.139202 -0.0427,16.616732 -0.22027,16.616732 -0.17759,0 -0.49006,-0.67978 -0.69437,-1.51062 z m 31.95389,-4.92347 c 0.0323,-0.78212 0.1913,-0.94121 0.40562,-0.40563 0.19394,0.48466 0.17009,1.06372 -0.0529,1.28682 -0.22308,0.22309 -0.38178,-0.17344 -0.35262,-0.88119 z m -0.67138,-4.0283 c 0.0323,-0.78212 0.19129,-0.94121 0.40562,-0.40563 0.19394,0.48466 0.1701,1.06373 -0.0529,1.28682 -0.2231,0.22309 -0.38178,-0.17344 -0.35263,-0.88119 z m -6.85249,-14.882915 c -0.8351,-1.064852 -0.81136,-1.088599 0.2535,-0.253485 1.11835,0.877074 1.474,1.428404 0.92143,1.428404 -0.13937,0 -0.66813,-0.528713 -1.17493,-1.174919 z M 79.024971,83.026841 c 2.782184,-2.964284 3.384973,-3.497298 3.384973,-2.993165 0,0.107744 -1.435081,1.542828 -3.189069,3.189069 l -3.18907,2.993165 z m 43.331269,-0.355372 c -1.10832,-1.004643 -2.92106,-2.523077 -4.02829,-3.374298 -1.10724,-0.851221 -1.40111,-1.254484 -0.65303,-0.896139 1.39283,0.667197 7.63808,6.075026 7.03216,6.089205 -0.18464,0.0042 -1.24251,-0.814127 -2.35084,-1.818768 z m -36.293215,-5.1465 c 0.716783,-0.574262 1.597973,-1.044112 1.958203,-1.044112 0.853019,0 0.472137,0.310111 -1.582986,1.288862 -1.582631,0.753725 -1.604055,0.739751 -0.375217,-0.24475 z m 7.634543,-2.84551 c 0.484655,-0.193943 1.063726,-0.170091 1.286826,0.053 0.223085,0.223096 -0.173451,0.381777 -0.881192,0.352624 -0.782136,-0.03222 -0.941212,-0.191304 -0.405634,-0.405624 z m 14.099042,0 c 0.48466,-0.193943 1.06373,-0.170091 1.28683,0.053 0.22308,0.223096 -0.17345,0.381777 -0.88119,0.352624 -0.78214,-0.03222 -0.94122,-0.191304 -0.40564,-0.405624 z M 98.373035,73.97425 c 1.579114,-0.141827 3.996095,-0.139833 5.371065,0.0044 1.37496,0.144266 0.0829,0.260305 -2.87113,0.257867 -2.954085,-0.0024 -4.079048,-0.120478 -2.499935,-0.2623 z m -0.01769,-2.684665 c 1.569351,-0.141348 4.137405,-0.141348 5.706755,0 1.56937,0.141347 0.28534,0.257 -2.85338,0.257 -3.138715,0 -4.42274,-0.115653 -2.853375,-0.257 z m -3.986332,-3.323956 c 0.484641,-0.193943 1.063712,-0.170091 1.286812,0.053 0.223099,0.223095 -0.173451,0.381776 -0.881192,0.352624 -0.782122,-0.03222 -0.941212,-0.191305 -0.40562,-0.405626 z m 10.397557,-1.05198 c -1.62888,-1.788354 -3.11908,-4.523015 -2.69553,-4.946556 0.16483,-0.164844 0.68339,0.626577 1.15234,1.758715 0.46895,1.132138 1.60778,2.652436 2.53076,3.378442 0.92296,0.726005 1.38792,1.320011 1.03322,1.320011 -0.35469,0 -1.26405,-0.679776 -2.02079,-1.510612 z m -6.916835,-1.007075 c 0.878546,-1.200096 1.702223,-2.181994 1.830412,-2.181994 0.509853,0 -1.154789,2.518051 -2.255713,3.412131 -0.725271,0.589011 -0.563153,0.120082 0.425301,-1.230137 z m 2.687605,-5.578532 c 0,-0.391054 0.30212,-0.524284 0.67138,-0.296068 0.36926,0.228216 0.67138,0.548167 0.67138,0.711005 0,0.162838 -0.30212,0.296069 -0.67138,0.296069 -0.36926,0 -0.67138,-0.319952 -0.67138,-0.711006 z"
         id="path1551" />
      <path
         style="fill:#10212d;stroke-width:0.671383"
         d="m 81.73856,284.60958 c 0,-0.36926 0.302123,-0.67138 0.671384,-0.67138 0.36926,0 0.671383,0.30212 0.671383,0.67138 0,0.36927 -0.302123,0.67139 -0.671383,0.67139 -0.369261,0 -0.671384,-0.30212 -0.671384,-0.67139 z m 52.31193,-15.70887 c -0.15386,-0.1469 -3.30096,-0.90973 -6.99358,-1.69522 -3.6926,-0.78548 -8.16502,-1.8166 -9.93871,-2.29138 l -3.22488,-0.86324 -0.13201,-27.82163 -0.13201,-27.82163 -5.87461,-0.19398 -5.8746,-0.19398 v -3.97614 -3.97616 l 3.41476,-1.01407 c 8.63984,-2.56575 13.32223,-8.28681 13.74917,-16.79904 0.41845,-8.34313 -5.99046,-16.20746 -14.28922,-17.53423 l -2.83207,-0.45278 0.14653,-19.55554 c 0.14354,-19.15682 0.11913,-19.55556 -1.19625,-19.55556 -1.290274,0 -1.349897,0.50846 -1.5254,13.00713 -0.139649,9.94339 0.02066,13.18527 0.68045,13.76336 0.61512,0.53895 0.79808,2.44397 0.63684,6.63082 -0.21235,5.51413 -0.31589,5.875 -1.68751,5.88115 -4.492352,0.0201 -11.361224,5.36332 -13.617441,10.59272 -1.62909,3.77587 -1.443574,10.53324 0.395975,14.42342 1.886331,3.98912 6.710635,8.31722 10.346443,9.28224 1.516081,0.40241 3.209687,0.96065 3.763573,1.24056 1.10931,0.56058 1.66576,4.03056 1.04376,6.50884 -0.37913,1.51057 -0.66724,1.58556 -6.091923,1.58556 h -5.693961 v 28.19809 c 0,27.34972 -0.03874,28.19807 -1.287853,28.19807 -0.708322,0 -1.765751,0.18339 -2.349841,0.40753 -0.905024,0.34729 -1.061986,-0.2757 -1.061986,-4.21509 v -4.62261 l -8.677827,-8.79638 -8.677826,-8.7964 0.28711,-10.65477 c 0.157908,-5.86012 0.427503,-13.85213 0.599094,-17.75999 0.333281,-7.5902 -0.01245,-8.67229 -2.770985,-8.67229 h -1.515923 l -0.03989,-24.79777 -0.03988,-24.79775 2.193596,-0.21126 c 1.86474,-0.17958 2.180411,-0.46288 2.105612,-1.88971 -0.0484,-0.92314 -0.12393,-7.15059 -0.167846,-13.83876 l -0.07983,-12.1603 -3.566843,-0.41922 c -4.701675,-0.55258 -7.846668,-1.69079 -7.846668,-2.83976 0,-0.51073 0.679775,-1.06634 1.510612,-1.23467 2.670829,-0.54116 27.888571,-1.31697 44.143438,-1.35808 l 15.77751,-0.0399 0.33568,6.37814 c 0.18463,3.50797 0.68826,6.98239 1.11917,7.7209 0.43091,0.73853 4.12075,4.62408 8.19963,8.63457 4.0789,4.01048 7.39154,7.48488 7.36146,7.7209 -0.32846,2.5768 0.20788,3.45033 2.11847,3.45033 h 2.01415 v 24.72927 c 0,13.6011 -0.16857,24.89784 -0.37458,25.10384 -0.206,0.20603 -0.96131,0.22114 -1.67845,0.0335 -1.24874,-0.32656 -1.30837,-1.14004 -1.40967,-19.22925 -0.10371,-18.52473 -0.11644,-18.68796 -0.66205,-8.48182 -0.61703,11.54293 -0.18181,51.38122 0.78847,72.17367 0.88916,19.05418 0.8458,23.16271 -0.24443,23.16271 -0.49235,0 -1.02107,-0.12012 -1.17492,-0.26707 z m 1.21979,-113.34675 c -0.14183,-1.57913 -0.25986,-0.45416 -0.26231,2.49994 -0.003,2.95408 0.11362,4.24609 0.25786,2.87111 0.14428,-1.37496 0.14627,-3.79194 0.004,-5.37105 z M 92.480694,138.63973 c 0,-13.55763 -0.0972,-14.01085 -2.853383,-13.29603 -1.068083,0.27702 -1.17492,1.48809 -1.17492,13.31839 v 13.01366 h 2.014154 2.014149 z m 20.141496,-0.0559 v -13.09197 h -2.01415 -2.01415 v 13.09197 13.09197 h 2.01415 2.01415 z m -10.95071,-18.29521 c -0.16888,-0.6462 -0.30705,-0.11743 -0.30705,1.17493 0,1.2924 0.13824,1.82111 0.30705,1.1749 0.16887,-0.6462 0.16887,-1.70362 0,-2.34983 z m -1.43488,62.77426 c -0.1422,-0.46158 -0.433552,-1.64199 -0.647455,-2.62316 -0.213888,-0.98115 -0.577344,-2.3407 -0.80766,-3.02122 -0.230315,-0.6805 0.297112,-0.24397 1.172065,0.97009 1.61996,2.24783 2.50035,2.40542 6.29049,1.12598 0.80275,-0.27098 0.26275,0.51 -1.34277,1.94192 -2.82315,2.51795 -4.23415,3.00386 -4.66467,1.60639 z m 42.01989,-62.2931 -1.58498,-1.32043 h 3.16742 c 2.61244,0 3.09602,0.18608 2.75992,1.06198 -0.22415,0.58409 -0.40753,1.18835 -0.40753,1.34277 0,0.77642 -2.54218,0.0758 -3.93483,-1.08432 z M 68.508469,109.54891 c 1.124009,-15.011789 8.062632,-26.752076 19.007705,-32.161424 4.447704,-2.198174 5.656796,-2.48705 11.609228,-2.773681 5.506328,-0.265148 7.457538,-0.07298 11.391398,1.12189 12.43363,3.776595 21.33659,16.284466 22.65251,31.824705 0.39048,4.61139 0.35753,4.76881 -0.69917,3.34055 -0.60993,-0.82439 -3.71248,-4.11415 -6.89455,-7.31058 -5.42756,-5.452068 -5.84326,-5.733224 -6.7176,-4.543556 -0.65898,0.896644 -0.89373,3.038236 -0.80132,7.310586 l 0.13073,6.04245 -20.742092,0.40158 c -11.40815,0.22086 -21.723989,0.59851 -22.924086,0.83922 -1.200097,0.24072 -3.131605,0.58981 -4.292246,0.77579 l -2.110251,0.33813 z m 33.268961,-14.772867 -0.10258,-16.616729 -0.59174,15.106118 c -0.53941,13.770278 -0.42547,18.127348 0.47409,18.127348 0.17758,0 0.27671,-7.47754 0.22027,-16.616737 z M 93.085402,70.314702 c -0.888591,-1.661615 -0.769571,-1.890441 0.983206,-1.890441 2.219477,0 4.898595,-2.297259 5.896063,-5.055701 0.991229,-2.741201 1.615899,-2.942762 2.178089,-0.7028 0.57851,2.304934 3.65419,5.758501 5.12842,5.758501 1.52764,0 2.08215,0.785339 1.36912,1.939046 -0.37741,0.610674 -2.67212,0.899618 -7.74327,0.975019 -6.139627,0.09129 -7.296481,-0.0603 -7.811628,-1.023624 z"
         id="path1549" />
    </g>
  </g>
</svg>
